<?xml version="1.0" encoding="UTF-8"?>
<svg xmlns="http://www.w3.org/2000/svg" viewBox="0 0 1600 900" width="1600" height="900">
  <defs>
    <linearGradient id="bg" x1="0%" y1="0%" x2="100%" y2="100%">
      <stop offset="0%" style="stop-color:#12141a"/>
      <stop offset="100%" style="stop-color:#0a0c10"/>
    </linearGradient>
    <filter id="glow" x="-20%" y="-20%" width="140%" height="140%">
      <feGaussianBlur stdDeviation="2" result="blur"/>
      <feMerge><feMergeNode in="blur"/><feMergeNode in="SourceGraphic"/></feMerge>
    </filter>
  </defs>
  <rect width="1600" height="900" fill="url(#bg)"/>
  <text x="800" y="48" text-anchor="middle" fill="#e1e4eb" font-family="system-ui,Segoe UI,sans-serif" font-size="22" font-weight="600">DataRadar — architecture overview</text>
  <text x="800" y="76" text-anchor="middle" fill="#8b8fa3" font-family="system-ui,sans-serif" font-size="13">Reddit to ingest, lake, processing, API, LLM insights, dashboard</text>

  <g font-family="system-ui,sans-serif" font-size="13" fill="#e1e4eb">
    <g transform="translate(40,110)">
      <rect x="0" y="0" width="150" height="72" rx="10" fill="#181a20" stroke="#6c5ce7" stroke-width="1.5"/>
      <text x="75" y="28" text-anchor="middle" font-weight="600">Reddit API</text>
      <text x="75" y="50" text-anchor="middle" fill="#8b8fa3" font-size="11">public JSON</text>
    </g>
    <text x="205" y="155" fill="#6c5ce7" font-size="20">&gt;</text>
    <g transform="translate(230,110)">
      <rect x="0" y="0" width="150" height="72" rx="10" fill="#181a20" stroke="#6c5ce7" stroke-width="1.5"/>
      <text x="75" y="28" text-anchor="middle" font-weight="600">Airflow</text>
      <text x="75" y="50" text-anchor="middle" fill="#8b8fa3" font-size="11">DAGs / Pools</text>
    </g>
    <text x="395" y="155" fill="#6c5ce7" font-size="20">&gt;</text>
    <g transform="translate(420,110)">
      <rect x="0" y="0" width="150" height="72" rx="10" fill="#181a20" stroke="#6c5ce7" stroke-width="1.5"/>
      <text x="75" y="28" text-anchor="middle" font-weight="600">AWS S3</text>
      <text x="75" y="50" text-anchor="middle" fill="#8b8fa3" font-size="11">Bronze (raw)</text>
    </g>
    <text x="585" y="155" fill="#6c5ce7" font-size="20">&gt;</text>
    <g transform="translate(610,110)">
      <rect x="0" y="0" width="150" height="72" rx="10" fill="#181a20" stroke="#6c5ce7" stroke-width="1.5"/>
      <text x="75" y="28" text-anchor="middle" font-weight="600">Lambda</text>
      <text x="75" y="50" text-anchor="middle" fill="#8b8fa3" font-size="11">S3 event to job</text>
    </g>
    <text x="775" y="155" fill="#6c5ce7" font-size="20">&gt;</text>
    <g transform="translate(800,110)">
      <rect x="0" y="0" width="170" height="72" rx="10" fill="#181a20" stroke="#00cec9" stroke-width="1.5" filter="url(#glow)"/>
      <text x="85" y="28" text-anchor="middle" font-weight="600">Databricks</text>
      <text x="85" y="50" text-anchor="middle" fill="#8b8fa3" font-size="11">PySpark / Delta / SQL WH</text>
    </g>
    <text x="995" y="155" fill="#6c5ce7" font-size="20">&gt;</text>
    <g transform="translate(1020,95)">
      <rect x="0" y="0" width="130" height="56" rx="8" fill="#1e1a2e" stroke="#a29bfe" stroke-width="1.2"/>
      <text x="65" y="24" text-anchor="middle" font-weight="600" font-size="12">Groq LLM</text>
      <text x="65" y="42" text-anchor="middle" fill="#8b8fa3" font-size="10">insights</text>
    </g>
    <g transform="translate(1020,158)">
      <rect x="0" y="0" width="130" height="40" rx="8" fill="#181a20" stroke="#6c5ce7" stroke-width="1.2"/>
      <text x="65" y="26" text-anchor="middle" font-weight="600" font-size="12">FastAPI</text>
    </g>
    <text x="1175" y="155" fill="#6c5ce7" font-size="20">&gt;</text>
    <g transform="translate(1200,110)">
      <rect x="0" y="0" width="150" height="88" rx="10" fill="#181a20" stroke="#6c5ce7" stroke-width="1.5"/>
      <text x="75" y="30" text-anchor="middle" font-weight="600">Dashboard</text>
      <text x="75" y="52" text-anchor="middle" fill="#8b8fa3" font-size="11">HTML/CSS/JS</text>
      <text x="75" y="72" text-anchor="middle" fill="#00cec9" font-size="10">+ Vercel static</text>
    </g>
  </g>

  <path d="M 885 182 L 885 210 L 1075 210 L 1075 151" fill="none" stroke="#5a5f73" stroke-width="1.2" stroke-dasharray="4 3"/>
  <path d="M 885 182 L 885 210 L 1075 210 L 1075 198" fill="none" stroke="#5a5f73" stroke-width="1.2" stroke-dasharray="4 3"/>
  <text x="980" y="228" text-anchor="middle" fill="#8b8fa3" font-family="system-ui,sans-serif" font-size="11">Silver + metrics / batch insights</text>

  <text x="800" y="330" text-anchor="middle" fill="#a29bfe" font-family="system-ui,sans-serif" font-size="14" font-weight="600">Stack</text>
  <g transform="translate(120,360)">
    <rect x="0" y="0" width="1360" height="64" rx="12" fill="#181a20" stroke="#2a2d38" stroke-width="1"/>
    <g font-family="system-ui,sans-serif" font-size="12" fill="#e1e4eb">
      <rect x="24" y="16" width="120" height="32" rx="6" fill="#1e2028" stroke="#6c5ce7" stroke-width="1"/>
      <text x="84" y="36" text-anchor="middle" font-weight="600">Apache Airflow</text>
      <rect x="168" y="16" width="100" height="32" rx="6" fill="#1e2028" stroke="#6c5ce7" stroke-width="1"/>
      <text x="218" y="36" text-anchor="middle" font-weight="600">AWS</text>
      <rect x="292" y="16" width="130" height="32" rx="6" fill="#1e2028" stroke="#00cec9" stroke-width="1"/>
      <text x="357" y="36" text-anchor="middle" font-weight="600">Databricks</text>
      <rect x="446" y="16" width="90" height="32" rx="6" fill="#1e2028" stroke="#a29bfe" stroke-width="1"/>
      <text x="491" y="36" text-anchor="middle" font-weight="600">Groq</text>
      <rect x="556" y="16" width="100" height="32" rx="6" fill="#1e2028" stroke="#6c5ce7" stroke-width="1"/>
      <text x="606" y="36" text-anchor="middle" font-weight="600">FastAPI</text>
      <rect x="680" y="16" width="110" height="32" rx="6" fill="#1e2028" stroke="#6c5ce7" stroke-width="1"/>
      <text x="735" y="36" text-anchor="middle" font-weight="600">Delta Lake</text>
      <rect x="814" y="16" width="140" height="32" rx="6" fill="#1e2028" stroke="#6c5ce7" stroke-width="1"/>
      <text x="884" y="36" text-anchor="middle" font-weight="600">GitHub Actions</text>
      <rect x="978" y="16" width="100" height="32" rx="6" fill="#1e2028" stroke="#6c5ce7" stroke-width="1"/>
      <text x="1028" y="36" text-anchor="middle" font-weight="600">Vercel</text>
    </g>
  </g>
</svg>
